REM DIRINDEX 1\2,1\3,1\4,1\5
REM DIRNAME folder01,folder02,folder03,folder04,folder05
TITLE ""
FILE "P1Q_t_0620-0629.mp3" MP3
  TRACK 01 AUDIO
    TITLE "3:cjc005_2763"
    INDEX 01 00:00:00
  TRACK 02 AUDIO
    TITLE "0:"
    INDEX 01 00:01:13
  TRACK 03 AUDIO
    TITLE "4:cjc005_2764"
    INDEX 01 00:01:42
  TRACK 04 AUDIO
    TITLE "0:"
    INDEX 01 00:03:10
  TRACK 05 AUDIO
    TITLE "5:cjc005_2765"
    INDEX 01 00:03:33
  TRACK 06 AUDIO
    TITLE "0:"
    INDEX 01 00:06:51
  TRACK 07 AUDIO
    TITLE "3:cjc005_2766"
    INDEX 01 00:07:35
  TRACK 08 AUDIO
    TITLE "0:"
    INDEX 01 00:08:34
  TRACK 09 AUDIO
    TITLE "4:cjc005_2767"
    INDEX 01 00:08:64
  TRACK 10 AUDIO
    TITLE "0:"
    INDEX 01 00:10:10
  TRACK 11 AUDIO
    TITLE "5:cjc005_2768"
    INDEX 01 00:10:33
  TRACK 12 AUDIO
    TITLE "0:"
    INDEX 01 00:13:12
  TRACK 13 AUDIO
    TITLE "3:cjc005_2769"
    INDEX 01 00:13:69
  TRACK 14 AUDIO
    TITLE "0:"
    INDEX 01 00:15:07
  TRACK 15 AUDIO
    TITLE "4:cjc005_2770"
    INDEX 01 00:15:30
  TRACK 16 AUDIO
    TITLE "0:"
    INDEX 01 00:16:55
  TRACK 17 AUDIO
    TITLE "5:cjc005_2771"
    INDEX 01 00:17:00
  TRACK 18 AUDIO
    TITLE "0:"
    INDEX 01 00:21:15
  TRACK 19 AUDIO
    TITLE "3:cjc005_2772"
    INDEX 01 00:21:60
  TRACK 20 AUDIO
    TITLE "0:"
    INDEX 01 00:22:72
  TRACK 21 AUDIO
    TITLE "4:cjc005_2773"
    INDEX 01 00:23:28
  TRACK 22 AUDIO
    TITLE "0:"
    INDEX 01 00:24:45
  TRACK 23 AUDIO
    TITLE "5:cjc005_2774"
    INDEX 01 00:24:67
  TRACK 24 AUDIO
    TITLE "0:"
    INDEX 01 00:28:33
  TRACK 25 AUDIO
    TITLE "3:cjc005_2775"
    INDEX 01 00:29:05
  TRACK 26 AUDIO
    TITLE "0:"
    INDEX 01 00:30:22
  TRACK 27 AUDIO
    TITLE "4:cjc005_2776"
    INDEX 01 00:30:48
  TRACK 28 AUDIO
    TITLE "0:"
    INDEX 01 00:32:03
  TRACK 29 AUDIO
    TITLE "5:cjc005_2777"
    INDEX 01 00:32:25
  TRACK 30 AUDIO
    TITLE "0:"
    INDEX 01 00:34:69
  TRACK 31 AUDIO
    TITLE "3:cjc005_2778"
    INDEX 01 00:35:49
  TRACK 32 AUDIO
    TITLE "0:"
    INDEX 01 00:36:66
  TRACK 33 AUDIO
    TITLE "4:cjc005_2779"
    INDEX 01 00:37:20
  TRACK 34 AUDIO
    TITLE "0:"
    INDEX 01 00:38:51
  TRACK 35 AUDIO
    TITLE "5:cjc005_2780"
    INDEX 01 00:39:02
  TRACK 36 AUDIO
    TITLE "0:"
    INDEX 01 00:42:66
  TRACK 37 AUDIO
    TITLE "3:cjc005_2781"
    INDEX 01 00:43:42
  TRACK 38 AUDIO
    TITLE "0:"
    INDEX 01 00:44:46
  TRACK 39 AUDIO
    TITLE "4:cjc005_2782"
    INDEX 01 00:44:69
  TRACK 40 AUDIO
    TITLE "0:"
    INDEX 01 00:46:21
  TRACK 41 AUDIO
    TITLE "5:cjc005_2783"
    INDEX 01 00:46:47
  TRACK 42 AUDIO
    TITLE "0:"
    INDEX 01 00:51:18
  TRACK 43 AUDIO
    TITLE "3:cjc005_2784"
    INDEX 01 00:51:73
  TRACK 44 AUDIO
    TITLE "0:"
    INDEX 01 00:52:73
  TRACK 45 AUDIO
    TITLE "4:cjc005_2785"
    INDEX 01 00:53:27
  TRACK 46 AUDIO
    TITLE "0:"
    INDEX 01 00:55:24
  TRACK 47 AUDIO
    TITLE "5:cjc005_2786"
    INDEX 01 00:55:51
  TRACK 48 AUDIO
    TITLE "0:"
    INDEX 01 00:59:38
  TRACK 49 AUDIO
    TITLE "3:cjc005_2787"
    INDEX 01 01:00:17
  TRACK 50 AUDIO
    TITLE "0:"
    INDEX 01 01:01:27
  TRACK 51 AUDIO
    TITLE "4:cjc005_2788"
    INDEX 01 01:01:52
  TRACK 52 AUDIO
    TITLE "0:"
    INDEX 01 01:03:12
  TRACK 53 AUDIO
    TITLE "5:cjc005_2789"
    INDEX 01 01:03:35
  TRACK 54 AUDIO
    TITLE "0:"
    INDEX 01 01:07:64
  TRACK 55 AUDIO
    TITLE "3:cjc005_2790"
    INDEX 01 01:08:44
  TRACK 56 AUDIO
    TITLE "0:"
    INDEX 01 01:09:48
  TRACK 57 AUDIO
    TITLE "4:cjc005_2791"
    INDEX 01 01:10:04
  TRACK 58 AUDIO
    TITLE "0:"
    INDEX 01 01:11:39
  TRACK 59 AUDIO
    TITLE "5:cjc005_2792"
    INDEX 01 01:11:58
  TRACK 60 AUDIO
    TITLE "0:"
    INDEX 01 01:15:15
